<?xml version="1.0" encoding="UTF-8" standalone="no"?>
<svg
   viewBox="0 0 100 100"
   x="0px"
   y="0px"
   version="1.1"
   id="svg2"
   sodipodi:docname="camera.svg"
   width="100"
   height="100"
   inkscape:version="1.3 (0e150ed, 2023-07-21)"
   xmlns:inkscape="http://www.inkscape.org/namespaces/inkscape"
   xmlns:sodipodi="http://sodipodi.sourceforge.net/DTD/sodipodi-0.dtd"
   xmlns="http://www.w3.org/2000/svg"
   xmlns:svg="http://www.w3.org/2000/svg">
  <sodipodi:namedview
     id="namedview2"
     pagecolor="#ffffff"
     bordercolor="#666666"
     borderopacity="1.0"
     inkscape:showpageshadow="2"
     inkscape:pageopacity="0.0"
     inkscape:pagecheckerboard="0"
     inkscape:deskcolor="#d1d1d1"
     inkscape:zoom="5.3400704"
     inkscape:cx="53.557346"
     inkscape:cy="49.43755"
     inkscape:window-width="1680"
     inkscape:window-height="997"
     inkscape:window-x="0"
     inkscape:window-y="25"
     inkscape:window-maximized="1"
     inkscape:current-layer="svg2" />
  <defs
     id="defs1">
    <style
       id="style1">.cls-1{fill-rule:evenodd;stroke-width:0px;}</style>
  </defs>
  <path
     class="cls-1"
     d="M 83.912804,35.422242 H 71.458781 V 53.363145 H 83.912804 Z M 70.203481,33.163601 h 14.964623 c 0.692891,0 1.255301,0.506169 1.255301,1.129321 v 20.199543 c 0,0.624276 -0.56241,1.129321 -1.255301,1.129321 H 70.203481 c -0.692891,0 -1.255301,-0.50617 -1.255301,-1.129321 V 34.292922 c 0,-0.624276 0.56241,-1.129321 1.255301,-1.129321 z M 88.552692,12.193555 c 1.407152,0 2.6827,0.505045 3.603928,1.320541 0.915605,0.809871 1.48364,1.929068 1.48364,3.160748 v 43.990641 c 0,1.232804 -0.568035,2.350877 -1.48364,3.161873 -0.921228,0.814371 -2.195652,1.32054 -3.603928,1.32054 H 12.944444 c -1.407151,0 -2.682698,-0.505045 -3.6039263,-1.32054 -0.9156051,-0.809872 -1.48364,-1.929069 -1.48364,-3.161873 V 16.673718 c 0,-1.232803 0.5680349,-2.350876 1.48364,-3.160747 C 10.261746,12.6986 11.536168,12.19243 12.944444,12.19243 h 75.608248 z m 7.598169,45.54627 H 100 V 49.898694 H 96.150861 Z M 43.217889,33.3267 c -1.519634,-1.367783 -3.618551,-2.213649 -5.937933,-2.213649 -2.319381,0 -4.418297,0.845866 -5.937931,2.213649 -1.519634,1.367783 -2.459985,3.256358 -2.459985,5.344026 0,4.173089 3.760278,7.556551 8.397916,7.556551 4.63764,0 8.397918,-3.383462 8.397918,-7.556551 0,-2.086543 -0.940351,-3.976243 -2.459985,-5.344026 z m -5.937933,-4.47229 c -3.012271,0 -5.738838,1.09895 -7.7129,2.875044 -1.974062,1.776092 -3.195618,4.230452 -3.195618,6.940148 0,5.421639 4.883975,9.816317 10.908518,9.816317 6.024545,0 10.908519,-4.394678 10.908519,-9.816317 0,-2.71082 -1.220431,-5.164056 -3.195617,-6.940148 C 43.018796,29.95336 40.292229,28.85441 37.279956,28.85441 Z m 9.458625,1.304793 c -2.420617,-2.177655 -5.764711,-3.525191 -9.458625,-3.525191 -3.693913,0 -7.038007,1.347536 -9.458623,3.525191 -2.420615,2.177654 -3.917753,5.187677 -3.917753,8.511523 0,3.323848 1.497138,6.33387 3.917753,8.511525 2.420616,2.177653 5.76471,3.52519 9.458623,3.52519 3.693914,0 7.038008,-1.347537 9.458625,-3.52519 2.420615,-2.177655 3.917753,-5.187677 3.917753,-8.511525 0,-3.323846 -1.497138,-6.333869 -3.917753,-8.511523 z m -9.458625,-5.784957 c -4.386803,0 -8.358547,1.600621 -11.233591,4.187711 -2.875043,2.587088 -4.653386,6.160647 -4.653386,10.108769 0,3.948124 1.778343,7.521681 4.653386,10.108771 2.875044,2.587089 6.846788,4.18771 11.233591,4.18771 4.386804,0 8.358549,-1.600621 11.233592,-4.18771 2.875044,-2.58709 4.653387,-6.160647 4.653387,-10.108771 0,-3.948122 -1.778343,-7.521681 -4.653387,-10.108769 -2.875043,-2.58709 -6.846788,-4.187711 -11.233592,-4.187711 z m 14.392091,1.345287 c -3.682666,-3.314849 -8.771358,-5.364274 -14.392091,-5.364274 -5.620731,0 -10.709424,2.05055 -14.39209,5.364274 -3.682665,3.314849 -5.961553,7.892872 -5.961553,12.951193 0,5.058323 2.277764,9.636346 5.961553,12.951195 3.682666,3.314849 8.771359,5.364273 14.39209,5.364273 5.620733,0 10.709425,-2.050549 14.392091,-5.364273 3.682665,-3.314849 5.961553,-7.892872 5.961553,-12.951195 0,-5.058321 -2.277763,-9.636344 -5.961553,-12.951193 z M 37.279956,18.096618 c -6.313622,0 -12.029965,2.302509 -16.167058,6.026793 -4.138218,3.723159 -6.697186,8.866967 -6.697186,14.548441 0,5.681473 2.558968,10.825281 6.697186,14.54844 4.138218,3.723159 9.853436,6.026793 16.167058,6.026793 6.313624,0 12.029966,-2.30251 16.167059,-6.026793 4.137093,-3.723159 6.697187,-8.866967 6.697187,-14.54844 0,-5.681474 -2.558969,-10.825282 -6.697187,-14.548441 C 49.308797,20.400252 43.59358,18.096618 37.279956,18.096618 Z M 78.30107,42.857312 c 0,-0.624276 0.56241,-1.129321 1.255301,-1.129321 0.692889,0 1.2553,0.50617 1.2553,1.129321 v 7.765768 c 0,0.624275 -0.562411,1.12932 -1.2553,1.12932 -0.692891,0 -1.255301,-0.50617 -1.255301,-1.12932 z m 1.176563,-3.561184 c -0.69289,0 -1.2553,-0.50617 -1.2553,-1.129322 0,-0.62315 0.56241,-1.12932 1.2553,-1.12932 h 0.157475 c 0.69289,0 1.2553,0.50617 1.2553,1.12932 0,0.623152 -0.56241,1.129322 -1.2553,1.129322 z m 4.191085,-15.771122 c -0.382439,-0.344195 -0.909981,-0.556787 -1.493764,-0.556787 -0.583781,0 -1.111323,0.212592 -1.493762,0.556787 -0.38244,0.344195 -0.618652,0.818869 -0.618652,1.344161 0,0.525292 0.236212,0.999967 0.618652,1.344163 0.382439,0.344194 0.909981,0.556785 1.493762,0.556785 0.583783,0 1.111325,-0.212591 1.493764,-0.556785 0.382439,-0.344196 0.618652,-0.818871 0.618652,-1.344163 0,-0.525292 -0.236213,-0.999966 -0.618652,-1.344161 z m -1.493764,-2.815428 c -1.276672,0 -2.431863,0.465676 -3.26873,1.218181 -0.836868,0.752506 -1.354285,1.792966 -1.354285,2.941408 0,1.148443 0.517417,2.187778 1.354285,2.941409 0.836867,0.752505 1.992058,1.218181 3.26873,1.218181 1.276674,0 2.431865,-0.465676 3.268731,-1.218181 0.836868,-0.752506 1.354285,-1.792966 1.354285,-2.941409 0,-1.148442 -0.517417,-2.187777 -1.354285,-2.941408 -0.836866,-0.752505 -1.992057,-1.218181 -3.268731,-1.218181 z m -9.73083,2.815428 c -0.382438,-0.344195 -0.90998,-0.556787 -1.493763,-0.556787 -0.583782,0 -1.111323,0.212592 -1.493762,0.556787 -0.38244,0.344195 -0.618652,0.818869 -0.618652,1.344161 0,0.525292 0.236212,0.999967 0.618652,1.344163 0.382439,0.344194 0.90998,0.556785 1.493762,0.556785 0.583783,0 1.111325,-0.212591 1.493763,-0.556785 0.38244,-0.344196 0.618653,-0.818871 0.618653,-1.344163 0,-0.525292 -0.236213,-0.999966 -0.618653,-1.344161 z m -1.493763,-2.815428 c -1.276672,0 -2.431863,0.465676 -3.26873,1.218181 -0.836868,0.752506 -1.354285,1.792966 -1.354285,2.941408 0,1.148443 0.517417,2.187778 1.354285,2.941409 0.836867,0.75363 1.992058,1.218181 3.26873,1.218181 1.276674,0 2.431865,-0.465676 3.268731,-1.218181 0.836868,-0.752506 1.354285,-1.792966 1.354285,-2.941409 0,-1.148442 -0.517417,-2.187777 -1.354285,-2.941408 -0.836866,-0.753629 -1.992057,-1.218181 -3.268731,-1.218181 z m 2.299135,79.451762 v -4.930093 c 0,-1.044958 -0.950473,-1.899822 -2.112414,-1.899822 H 30.357805 c -1.16194,0 -2.112414,0.854864 -2.112414,1.899822 v 4.930093 H 73.248372 Z M 11.706016,75.824703 H 5.9862996 v 6.831041 h 5.7197164 z m 5.9863,0 h -3.475698 v 6.831041 h 3.475698 z M 3.4756982,83.317139 V 75.162183 L 0,72.035181 V 86.444143 Z M 73.890645,82.46115 c 0.539914,-0.172098 1.025837,-0.452178 1.424024,-0.810996 0.68839,-0.619777 1.115823,-1.473517 1.115823,-2.411618 0,-0.938101 -0.427433,-1.79184 -1.115823,-2.411617 -0.398187,-0.358817 -0.88411,-0.637774 -1.424024,-0.810996 v 6.442977 0 z m -36.555572,0.193469 v -6.83104 H 20.204042 v 6.83104 z m 2.510601,8.417039 h 6.094283 V 67.407664 H 39.845674 Z M 64.163189,75.824703 v 6.831041 h 7.216854 V 75.824703 Z M 53.047704,91.071658 V 67.407664 h -4.59827 v 23.663994 z m 2.510601,-23.663994 v 23.663994 h 6.094283 V 67.407664 Z"
     id="path1"
     style="fill:#c8ff00;fill-opacity:1" />
</svg>
